<?xml version="1.0" encoding="UTF-8"?>
<svg xmlns="http://www.w3.org/2000/svg" xmlns:xlink="http://www.w3.org/1999/xlink" width="187.5pt" height="187.499995pt" viewBox="0 0 187.5 187.499995" version="1.2">
<defs>
<clipPath id="clip1">
  <path d="M 5.113281 0 L 181.84375 0 L 181.84375 177 L 5.113281 177 Z M 5.113281 0 "/>
</clipPath>
<clipPath id="clip2">
  <path d="M 114 135 L 177 135 L 177 187 L 114 187 Z M 114 135 "/>
</clipPath>
</defs>
<g id="surface1">
<g clip-path="url(#clip1)" clip-rule="nonzero">
<path style=" stroke:none;fill-rule:nonzero;fill:rgb(98.81897%,67.059326%,25.099182%);fill-opacity:1;" d="M 77.886719 115.125 C 77.886719 115.125 71.90625 129.460938 66.710938 139.886719 C 61.511719 150.316406 58.050781 167.140625 68.398438 172.445312 C 84.164062 180.542969 112.988281 175.441406 129.863281 167.265625 C 144.023438 160.402344 156.785156 151.179688 166.25 135.980469 C 175.328125 121.414062 181.84375 104.699219 181.84375 94.269531 C 181.84375 83.84375 181.082031 75.546875 177.363281 64.5 C 174.609375 56.316406 170.128906 46.445312 162.082031 38.03125 C 152.625 28.144531 148.386719 18.191406 143.460938 11.136719 C 139.253906 5.09375 135.0625 0.421875 124.667969 0.421875 C 114.269531 0.421875 88.28125 16.0625 72.6875 21.277344 C 57.09375 26.492188 36.300781 31.707031 20.707031 52.5625 C 5.113281 73.417969 5.113281 94.269531 5.113281 104.699219 C 5.113281 115.125 5.4375 130.167969 15.507812 135.980469 C 27.492188 142.902344 44.488281 127.460938 57.328125 123.699219 C 69.527344 120.121094 77.886719 115.125 77.886719 115.125 Z M 77.886719 115.125 "/>
</g>
<path style=" stroke:none;fill-rule:nonzero;fill:rgb(95.689392%,56.469727%,4.708862%);fill-opacity:1;" d="M 175.175781 111.652344 C 175.175781 111.652344 161.59375 130.183594 154.132812 135 C 150.109375 137.597656 145.714844 140.269531 140.085938 142.902344 C 136.476562 144.589844 120.375 150.980469 116.0625 152.3125 C 108.746094 154.570312 98.988281 156.640625 93.921875 156.828125 C 88.851562 157.015625 84.539062 156.804688 77.167969 157.761719 C 72.636719 158.34375 65.960938 160.964844 65.773438 163.980469 C 65.585938 166.992188 71.027344 172.453125 81.914062 173.015625 C 92.796875 173.578125 113.085938 172.09375 125.445312 166.617188 C 142.710938 158.96875 153.03125 149.492188 158.101562 143.46875 C 163.164062 137.441406 172.171875 122.570312 175.175781 111.652344 Z M 175.175781 111.652344 "/>
<path style=" stroke:none;fill-rule:nonzero;fill:rgb(74.899292%,41.178894%,32.159424%);fill-opacity:1;" d="M 175.175781 111.652344 C 175.175781 111.652344 166.167969 122.949219 158.808594 129.136719 C 153.941406 133.230469 143.539062 140.507812 135.957031 144.21875 C 128.265625 147.984375 113.527344 152.828125 103.117188 154.382812 C 94.296875 155.699219 80.53125 157.125 75.90625 158.144531 C 71.441406 159.132812 69.214844 160.535156 70.460938 162.097656 C 72.34375 164.453125 76.886719 163.871094 83.785156 162.996094 C 99.972656 160.941406 114.621094 157.84375 127.121094 152.6875 C 139.890625 147.414062 152.464844 140.832031 157.535156 134.804688 C 162.601562 128.777344 169.75 122.003906 175.175781 111.652344 Z M 175.175781 111.652344 "/>
<path style=" stroke:none;fill-rule:nonzero;fill:rgb(95.689392%,56.469727%,4.708862%);fill-opacity:1;" d="M 118.6875 21.117188 C 115.148438 28.207031 104.585938 44.667969 98.675781 54.621094 C 91.644531 66.460938 82.476562 80.785156 77.5 94.269531 C 75.96875 98.433594 72.640625 113.917969 73.242188 117.554688 C 76.152344 116.144531 77.886719 115.125 77.886719 115.125 C 77.886719 115.125 83.976562 103.371094 89.226562 95.277344 C 94.480469 87.1875 112.117188 56.316406 118.6875 45.398438 C 125.257812 34.480469 127.851562 23.707031 126.945312 18.191406 C 125.632812 10.1875 121.296875 15.890625 118.6875 21.117188 Z M 118.6875 21.117188 "/>
<path style=" stroke:none;fill-rule:nonzero;fill:rgb(74.899292%,41.178894%,32.159424%);fill-opacity:1;" d="M 118.875 30.339844 C 115.164062 38.101562 104.785156 54.621094 99.972656 63.84375 C 95.15625 73.066406 82.195312 95.898438 77.03125 109.015625 C 76.113281 111.355469 75.167969 114.109375 74.796875 116.78125 C 76.945312 115.699219 77.886719 115.125 77.886719 115.125 C 77.886719 115.125 83.976562 103.371094 89.226562 95.277344 C 94.480469 87.1875 112.117188 56.316406 118.6875 45.398438 C 123.753906 36.980469 126.429688 28.683594 126.984375 22.785156 C 125.492188 15.945312 121.324219 25.21875 118.875 30.339844 Z M 118.875 30.339844 "/>
<g clip-path="url(#clip2)" clip-rule="nonzero">
<path style=" stroke:none;fill-rule:nonzero;fill:rgb(79.998779%,83.918762%,86.669922%);fill-opacity:1;" d="M 151.015625 135.015625 C 146.195312 138.390625 140.5625 141.960938 135.953125 144.214844 C 130.753906 146.757812 122.359375 149.765625 114.238281 151.953125 L 114.246094 151.96875 C 114.246094 151.96875 127.191406 180.785156 145.273438 187.257812 L 176.8125 156.734375 C 176.8125 156.734375 156.765625 142.90625 151.015625 135.015625 Z M 151.015625 135.015625 "/>
</g>
<path style=" stroke:none;fill-rule:nonzero;fill:rgb(60.389709%,66.668701%,70.588684%);fill-opacity:1;" d="M 132.226562 145.886719 C 131.449219 146.210938 130.640625 146.539062 129.796875 146.867188 C 129.164062 147.117188 128.511719 147.363281 127.851562 147.609375 C 127.207031 147.847656 126.558594 148.089844 125.886719 148.328125 C 125.128906 148.597656 124.367188 148.859375 123.582031 149.125 L 122.828125 149.375 C 120.019531 150.308594 117.128906 151.179688 114.238281 151.957031 L 114.246094 151.972656 C 114.246094 151.972656 115.03125 153.714844 116.46875 156.421875 C 120.160156 155.304688 123.730469 154.085938 127.121094 152.6875 C 137.480469 148.410156 147.632812 143.277344 153.832031 138.269531 C 152.710938 137.117188 151.75 136.019531 151.015625 135.015625 L 151.003906 135.027344 C 149.902344 135.800781 148.757812 136.578125 147.589844 137.351562 L 146.785156 137.878906 C 145.871094 138.480469 144.953125 139.0625 144.027344 139.640625 L 142.949219 140.316406 C 142.078125 140.839844 141.234375 141.339844 140.386719 141.832031 L 139.320312 142.445312 C 138.160156 143.09375 137.027344 143.703125 135.957031 144.226562 C 135.113281 144.636719 134.160156 145.0625 133.160156 145.496094 Z M 132.226562 145.886719 "/>
</g>
</svg>
