<?xml version="1.0" encoding="UTF-8"?>
<svg width="16px" height="16px" viewBox="0 0 16 16" version="1.1" xmlns="http://www.w3.org/2000/svg" xmlns:xlink="http://www.w3.org/1999/xlink">
    <title>9D5531F2-29AF-4499-93F2-BE632B6E0F21</title>
    <g id="Page-1" stroke="none" stroke-width="1" fill="none" fill-rule="evenodd">
        <g id="Lib_Start" transform="translate(-139.000000, -249.000000)">
            <g id="Page-Element/Search+Tags" transform="translate(77.000000, 132.000000)">
                <g id="Group" transform="translate(62.000000, 110.000000)">
                    <g id="Group" transform="translate(0.000000, 7.000000)">
                        <rect id="Rectangle" x="0" y="0" width="16" height="16"></rect>
                        <path d="M2.79289322,5.79289322 C3.15337718,5.43240926 3.72060824,5.40467972 4.11289944,5.70970461 L4.20710678,5.79289322 L8,9.585 L11.7928932,5.79289322 C12.1533772,5.43240926 12.7206082,5.40467972 13.1128994,5.70970461 L13.2071068,5.79289322 C13.5675907,6.15337718 13.5953203,6.72060824 13.2902954,7.11289944 L13.2071068,7.20710678 L8.70710678,11.7071068 C8.34662282,12.0675907 7.77939176,12.0953203 7.38710056,11.7902954 L7.29289322,11.7071068 L2.79289322,7.20710678 C2.40236893,6.81658249 2.40236893,6.18341751 2.79289322,5.79289322 Z" id="Path-18" fill="#222222" fill-rule="nonzero"></path>
                    </g>
                </g>
            </g>
        </g>
    </g>
</svg>