<?xml version="1.0" encoding="UTF-8"?>
<svg width="40px" height="40px" viewBox="0 0 40 40" version="1.1" xmlns="http://www.w3.org/2000/svg" xmlns:xlink="http://www.w3.org/1999/xlink">
    <title>8044A66C-3777-4334-8333-E870A0147E09</title>
    <g id="Page-1" stroke="none" stroke-width="1" fill="none" fill-rule="evenodd">
        <g id="Lib_Start" transform="translate(-77.000000, -72.000000)">
            <g id="Tool_Content_Cloud" transform="translate(77.000000, 72.000000)">
                <rect id="Invisible_Shape" x="0" y="0" width="40" height="40"></rect>
                <path d="M25,23 C25.5522847,23 26,23.4477153 26,24 L26,33.584 L28.2928932,31.2928932 C28.6533772,30.9324093 29.2206082,30.9046797 29.6128994,31.2097046 L29.7071068,31.2928932 C30.0976311,31.6834175 30.0976311,32.3165825 29.7071068,32.7071068 L25.7071068,36.7071068 L25.629,36.775 L25.5953066,36.8036654 C25.5711307,36.8215099 25.546275,36.8382813 25.5206602,36.8539326 L25.4840621,36.8753288 C25.4642939,36.8862061 25.4438914,36.8966234 25.4230991,36.9063462 L25.371336,36.9287745 C25.3515792,36.9366843 25.3317977,36.9438775 25.3117364,36.9504533 C25.2968513,36.9552713 25.2814633,36.9599023 25.265993,36.9641549 C25.2444365,36.9701664 25.2227461,36.9753602 25.2007941,36.9798348 C25.1833753,36.9832978 25.165949,36.9863719 25.1484669,36.9889822 C25.1281144,36.9920941 25.1070574,36.994564 25.085811,36.9963697 C25.0679231,36.997855 25.050591,36.9988772 25.0332468,36.9994506 L25,37 L24.917,36.996 L24.8510388,36.9889807 C24.834051,36.9863719 24.8166247,36.9832978 24.7992742,36.9797599 C24.7772539,36.9753602 24.7555635,36.9701664 24.7341604,36.964279 C24.7185367,36.9599023 24.7031487,36.9552713 24.6878575,36.9502619 C24.6682023,36.9438775 24.6484208,36.9366843 24.6289415,36.928896 L24.5767785,36.9063266 C24.5561086,36.8966234 24.5357061,36.8862061 24.515723,36.8751242 C24.5036056,36.8685012 24.4913869,36.8613931 24.4792912,36.8540045 C24.453725,36.8382813 24.4288693,36.8215099 24.4048407,36.8036865 L24.3829777,36.7870723 C24.3515341,36.7623312 24.3213595,36.7355731 24.2928932,36.7071068 L20.2928932,32.7071068 C19.9023689,32.3165825 19.9023689,31.6834175 20.2928932,31.2928932 C20.6834175,30.9023689 21.3165825,30.9023689 21.7071068,31.2928932 L24,33.586 L24,24 C24,23.4477153 24.4477153,23 25,23 Z M15,17 L15.028,17 L15.045,17.001 L15.04,17.001 L15.063,17.002 L15.045,17.001 L15.063,17.002 L15.08,17.003 L15.1489612,17.0110193 C15.165949,17.0136281 15.1833753,17.0167022 15.2007258,17.0202401 C15.2227461,17.0246398 15.2444365,17.0298336 15.2658396,17.035721 C15.2814633,17.0400977 15.2968513,17.0447287 15.3121425,17.0497381 C15.3317977,17.0561225 15.3515792,17.0633157 15.3710585,17.071104 L15.4232215,17.0936734 C15.4438914,17.1033766 15.4642939,17.1137939 15.484277,17.1248758 C15.4963944,17.1314988 15.5086131,17.1386069 15.5207088,17.1459955 C15.546275,17.1617187 15.5711307,17.1784901 15.5951593,17.1963135 L15.6170223,17.2129277 C15.6196628,17.2150711 15.6225624,17.2173721 15.625449,17.2196888 L15.7071068,17.2928932 L19.7071068,21.2928932 C20.0976311,21.6834175 20.0976311,22.3165825 19.7071068,22.7071068 C19.3165825,23.0976311 18.6834175,23.0976311 18.2928932,22.7071068 L16,20.415 L16,30 C16,30.5522847 15.5522847,31 15,31 C14.4477153,31 14,30.5522847 14,30 L14,20.415 L11.7071068,22.7071068 C11.3466228,23.0675907 10.7793918,23.0953203 10.3871006,22.7902954 L10.2928932,22.7071068 C9.90236893,22.3165825 9.90236893,21.6834175 10.2928932,21.2928932 L14.2928932,17.2928932 L14.37,17.224 L14.4046934,17.1963346 C14.4288693,17.1784901 14.453725,17.1617187 14.4793398,17.1460674 L14.5159379,17.1246712 C14.5357061,17.1137939 14.5561086,17.1033766 14.5769009,17.0936538 L14.628664,17.0712255 C14.6484208,17.0633157 14.6682023,17.0561225 14.6882636,17.0495467 C14.7031487,17.0447287 14.7185367,17.0400977 14.734007,17.0358451 C14.7555635,17.0298336 14.7772539,17.0246398 14.7992059,17.0201652 C14.8166247,17.0167022 14.834051,17.0136281 14.8515331,17.0110178 L14.909968,17.003998 C14.9343349,17.0018656 14.9579802,17.0005993 14.9816379,17.0001675 C14.9872016,17.0000602 14.9935938,17 15,17 L15.0193545,17.0001861 L15.02,17 L15.04,17.001 L15.028,17 L15.02,17 L15,17 Z M22.2030884,3.08753006 C24.0178785,4.06244285 25.4677847,5.62539525 26.3272888,7.53326134 C27.7200975,7.16380629 29.1737201,7.1027995 30.5911923,7.3542792 C32.0088334,7.60577623 33.3580587,8.16398837 34.5489989,8.9918436 C35.7401079,9.8196815 36.7457344,10.8981672 37.4991518,12.1555657 C38.2524004,13.4129642 38.7363782,14.8206266 38.9184822,16.2847896 C39.1005862,17.7487792 38.9767623,19.2359931 38.5552877,20.6472951 C38.1339821,22.0584238 37.4244858,23.3615774 36.4742676,24.4697519 C35.5240494,25.5779264 34.354732,26.4658178 33.0441911,27.0744992 C31.7334813,27.6831806 30.311617,27.9987868 28.8730289,28 C28.3908683,28 28,27.6091317 28,27.1269711 L28,24 C28,22.4023191 26.75108,21.0963391 25.1762728,21.0050927 L25,21 L24.8237272,21.0050927 C23.24892,21.0963391 22,22.4023191 22,24 L21.9985,27.0000001 C21.9977238,27.5520893 21.5500895,27.9994999 20.998,28 L19.001,28 C18.4487153,28.0003596 18.001,27.5526443 18.001,27.0003596 L18.00214,24.8299782 C18.9948559,25.1792146 20.1347289,24.9905385 20.9686551,24.2638744 L21.1213203,24.1213203 C22.2928932,22.9497475 22.2928932,21.0502525 21.1213203,19.8786797 L17.1213203,15.8786797 L17.0421363,15.8037001 L16.876,15.659 L16.8052461,15.6039285 L16.6431793,15.4899276 C16.6180174,15.473374 16.5933273,15.4576993 16.5684299,15.4423874 L16.4434897,15.3699083 L16.3269455,15.3093039 L16.1652489,15.2355491 L16.0489555,15.1895979 L15.8053443,15.1098615 L15.6980382,15.0821605 L15.5053725,15.0427905 L15.3110187,15.0163872 L15.1431931,15.0033201 L14.9849476,15.0004634 L14.7969586,15.0069955 L14.6129871,15.0252948 L14.5037246,15.0417006 L14.3004656,15.0825193 L14.1192954,15.1319791 L13.9384275,15.1939626 L13.7817576,15.2585115 L13.6283556,15.3319142 L13.4699307,15.4194832 L13.3716875,15.4807237 L13.2169736,15.5871976 L13.1230653,15.6603012 L13.0374533,15.7325848 L12.8786797,15.8786797 L8.87867966,19.8786797 C7.70710678,21.0502525 7.70710678,22.9497475 8.87867966,24.1213203 L8.96907307,24.2062733 L9.0632804,24.2894619 L9.15944627,24.3691763 L9.31738996,24.4840008 C10.1206407,25.0291091 11.1198673,25.1393247 12,24.829 L12,27 C12,27.5522847 11.5522847,28 11,28 L9.44634583,28 C7.37968461,28 5.38853138,27.2227954 3.84670499,25.8218448 L3.6188477,25.6070433 C2.04807368,24.0709546 1.11378875,21.9736729 1.00972592,19.7498713 C0.905664784,17.5260698 1.63980927,15.3464635 3.05991669,13.6630574 C4.48004101,11.9796512 6.4771716,10.921686 8.63718225,10.7083875 C8.81425224,8.6144854 9.66086709,6.63933853 11.0453139,5.09019931 C12.4297607,3.54106009 14.274434,2.50479388 16.2923427,2.14261805 C18.310319,1.78042489 20.3882984,2.1126346 22.2030884,3.08753006 Z" id="Icon" fill="#222222" fill-rule="nonzero"></path>
            </g>
        </g>
    </g>
</svg>