<?xml version="1.0" encoding="utf-8"?>
<!-- Svg Vector Icons : http://www.onlinewebfonts.com/icon -->
<!DOCTYPE svg PUBLIC "-//W3C//DTD SVG 1.1//EN" "http://www.w3.org/Graphics/SVG/1.1/DTD/svg11.dtd">
<svg version="1.1" xmlns="http://www.w3.org/2000/svg" xmlns:xlink="http://www.w3.org/1999/xlink" x="0px" y="0px" viewBox="0 0 1000 1000" enable-background="new 0 0 1000 1000" xml:space="preserve">
<metadata> Svg Vector Icons : http://www.onlinewebfonts.com/icon </metadata>
<g><g transform="translate(0.000000,511.000000) scale(0.100000,-0.100000)"><path d="M4769.7,4958.5l-63.7-49v-683.7v-683.7l63.7-49c36.8-29.4,95.6-51.5,132.3-51.5c36.8,0,95.6,22.1,132.3,51.5l63.7,49v683.7v683.7l-63.7,49c-36.7,29.4-95.6,51.5-132.3,51.5C4865.2,5010,4806.4,4987.9,4769.7,4958.5z"/><path d="M2904.8,4515c-71.1-39.2-110.3-95.6-110.3-161.7c0-85.8,634.7-1181.1,700.8-1210.6c115.2-53.9,279.4,46.6,279.4,169.1c0,71.1-588.1,1119.9-666.5,1190.9C3051.9,4549.3,2975.9,4556.7,2904.8,4515z"/><path d="M7087.8,4502.7c-78.4-71.1-666.5-1119.9-666.5-1190.9c0-122.5,164.2-223,279.4-169.1c61.3,27,700.8,1119.9,700.8,1200.7c0,83.3-26.9,127.4-100.4,164.2C7210.3,4556.7,7149.1,4554.2,7087.8,4502.7z"/><path d="M4816.2,3218.7c-990-88.2-1882-791.5-2225-1754.6c-350.4-977.7-44.1-2217.7,794-3207.7c144.6-169.1,232.8-250,492.6-450.9c44.1-36.8,46.6-68.6,44.1-605.3l-2.5-566l68.6-78.4c137.2-164.2,171.5-171.5,1080.7-171.5c901.8,0,931.2,4.9,982.6,149.5c17.2,46.6,27,281.8,27,595.5v517.1l308.7,318.6c693.5,715.5,1078.2,1306.1,1249.8,1923.6c90.7,330.8,110.3,887.1,39.2,1225.2c-193.6,933.6-857.7,1681-1759.5,1982.4C5563.6,3213.8,5208.3,3253,4816.2,3218.7z M6271.8,1966.5c76-41.7,208.3-149.5,296.5-237.7c401.9-406.8,529.3-997.3,340.6-1565.9C6855-1.3,6668.8-300.2,6551.2-410.5l-71.1-68.6l-90.7,122.5c-49,66.2-90.7,127.4-90.7,137.2c0,7.4,34.3,53.9,73.5,100.5c90.7,102.9,178.9,272,230.4,446c49,164.2,51.5,507.3,4.9,678.8c-76,289.2-289.2,578.3-526.8,713.1c-61.3,36.8-115.2,68.6-120.1,71.1c-4.9,2.5,0,68.6,7.4,144.6c19.6,139.7,19.6,139.7,93.1,125C6100.3,2052.3,6195.8,2010.6,6271.8,1966.5z"/><path d="M1542.4,2998.1c-51.5-56.4-71.1-100.5-71.1-166.6v-90.7l438.6-252.4c321-183.8,453.3-247.5,490.1-235.2c73.5,22.1,149.5,142.1,149.5,237.7c0,80.9-7.3,85.8-436.2,333.3c-237.7,137.2-448.4,250-468,250C1628.1,3074.1,1581.6,3039.8,1542.4,2998.1z"/><path d="M7982.3,2824.2c-428.8-247.5-433.7-252.4-433.7-333.3c0-95.6,76-215.6,149.5-237.7c36.8-12.3,159.3,44.1,446,210.7c218.1,125,416.6,242.6,441.1,262.2c66.2,58.8,53.9,183.8-29.4,272c-39.2,41.7-85.8,76-105.4,76C8433.1,3074.1,8222.4,2961.4,7982.3,2824.2z"/><path d="M873.4,1329.4c-56.4-80.9-46.6-193.6,22.1-269.6l58.8-68.6h468h468l58.8,68.6c68.6,76,78.4,188.7,22.1,269.6c-36.8,53.9-49,53.9-548.9,53.9S910.1,1383.3,873.4,1329.4z"/><path d="M8028.8,1231.3c-56.3-80.9-46.5-193.6,22.1-269.6l58.8-68.6h468h468l58.8,68.6c68.6,76,78.4,188.7,22.1,269.6c-36.8,53.9-49,53.9-548.9,53.9C8077.8,1285.3,8065.5,1285.3,8028.8,1231.3z"/><path d="M4313.9-4216.1c0-289.2,76-428.8,289.2-539.1c68.6-34.3,144.6-39.2,470.5-31.9c374.9,7.3,389.6,9.8,455.8,68.6c115.1,107.8,156.8,232.8,156.8,485.2v225.5H5000h-686.1V-4216.1z"/></g></g>
</svg>